<svg width="36" height="36" viewBox="0 0 36 36" fill="none" xmlns="http://www.w3.org/2000/svg">
<path d="M22.5 3H9C8.20435 3 7.44129 3.31607 6.87868 3.87868C6.31607 4.44129 6 5.20435 6 6V30C6 30.7956 6.31607 31.5587 6.87868 32.1213C7.44129 32.6839 8.20435 33 9 33H27C27.7956 33 28.5587 32.6839 29.1213 32.1213C29.6839 31.5587 30 30.7956 30 30V10.5L22.5 3Z" stroke="white" stroke-width="3" stroke-linecap="round" stroke-linejoin="round"/>
<path d="M15 27C16.6569 27 18 25.6569 18 24C18 22.3431 16.6569 21 15 21C13.3431 21 12 22.3431 12 24C12 25.6569 13.3431 27 15 27Z" stroke="white" stroke-width="3" stroke-linecap="round" stroke-linejoin="round"/>
<path d="M24 15L17.25 21.75" stroke="white" stroke-width="3" stroke-linecap="round" stroke-linejoin="round"/>
<path d="M22.5 16.5L24 18" stroke="white" stroke-width="3" stroke-linecap="round" stroke-linejoin="round"/>
</svg>
